<?xml version="1.0" standalone="no"?>
<!DOCTYPE svg PUBLIC "-//W3C//DTD SVG 20010904//EN"
 "http://www.w3.org/TR/2001/REC-SVG-20010904/DTD/svg10.dtd">
<svg version="1.0" xmlns="http://www.w3.org/2000/svg"
 width="1024.000000pt" height="1024.000000pt" viewBox="0 0 1024.000000 1024.000000"
 preserveAspectRatio="xMidYMid meet">

<g transform="translate(0.000000,1024.000000) scale(0.100000,-0.100000)"
fill="#000000" stroke="none">
<path d="M5318 7935 c-47 -38 -126 -129 -191 -218 -11 -17 -18 -18 -53 -8 -93
26 -282 3 -374 -44 -27 -14 -31 -12 -151 74 -68 49 -142 105 -163 125 -21 20
-40 35 -41 34 -1 -2 -6 -14 -10 -27 -5 -18 -4 -22 6 -16 9 6 10 3 4 -11 -27
-64 -28 -214 -2 -314 2 -8 7 -32 12 -53 4 -20 10 -39 14 -41 4 -3 29 11 56 30
179 124 221 147 290 158 28 4 34 3 19 -3 -12 -5 -25 -22 -29 -38 -3 -15 -20
-56 -36 -91 -16 -35 -29 -67 -29 -72 0 -15 -110 -222 -154 -289 -55 -83 -98
-126 -156 -156 -81 -41 -147 -55 -254 -54 -86 1 -94 3 -53 9 26 5 66 18 90 29
58 28 158 109 164 132 3 10 9 19 13 19 11 0 142 136 186 193 20 26 34 50 31
54 -4 3 -33 -8 -64 -25 -73 -38 -161 -72 -193 -73 l-25 -1 25 -8 c23 -7 23 -8
3 -9 -28 -1 -39 -18 -16 -24 11 -3 6 -5 -12 -7 -16 -1 -25 -4 -18 -6 8 -4 7
-15 -4 -42 -8 -20 -16 -38 -17 -39 -1 -2 -40 4 -86 12 -113 20 -222 57 -358
121 -78 37 -112 48 -108 38 5 -12 2 -15 -12 -12 -15 4 -19 -2 -20 -30 -2 -21
-12 -45 -25 -58 -12 -12 -28 -30 -36 -40 -14 -16 -15 -16 -21 1 -6 17 -7 17
-13 2 -5 -12 0 -18 18 -23 14 -3 23 -10 20 -14 -3 -5 5 -6 17 -3 17 3 19 2 9
-5 -15 -11 2 -27 19 -17 5 3 8 0 5 -7 -12 -34 291 -179 404 -194 34 -4 80 -34
53 -34 -7 0 -12 -9 -12 -20 0 -11 -4 -20 -8 -20 -5 0 -14 -12 -21 -27 -10 -26
-10 -27 4 -9 8 11 15 16 15 12 0 -13 -34 -66 -42 -66 -4 0 -5 -7 -2 -15 4 -8
1 -15 -6 -15 -6 0 -9 -4 -6 -9 3 -4 -3 -18 -14 -31 l-19 -22 -163 52 c-90 28
-191 62 -225 76 -65 25 -113 31 -113 13 0 -5 5 -7 10 -4 6 3 17 -1 26 -9 14
-15 14 -16 -4 -16 -61 0 44 -93 235 -208 99 -59 296 -162 311 -162 6 0 28 26
49 58 22 31 69 100 104 152 80 118 98 156 112 235 l11 63 50 10 c28 6 52 9 54
7 6 -5 -19 -102 -40 -155 -20 -50 -88 -169 -113 -196 -5 -7 -37 -55 -70 -109
-33 -53 -87 -138 -121 -189 -71 -110 -98 -162 -88 -177 28 -46 20 -161 -14
-209 -34 -46 -33 -57 6 -95 73 -72 97 -78 278 -78 188 0 195 3 308 99 42 35
80 64 85 64 6 0 4 -18 -5 -42 -28 -76 -77 -242 -79 -268 -1 -14 -7 -44 -13
-67 -5 -25 -6 -43 -1 -43 5 0 9 12 10 28 0 15 3 20 6 12 2 -8 9 -25 15 -37 6
-13 8 -26 5 -30 -4 -3 -7 2 -7 13 0 16 -2 17 -10 4 -5 -8 -9 -28 -9 -45 1 -17
3 -22 6 -12 5 19 21 23 20 5 0 -7 1 -22 2 -33 l2 -20 9 20 c5 13 9 -26 9 -105
3 -387 102 -851 243 -1138 37 -74 113 -187 93 -137 -24 60 -77 291 -99 436
-36 232 -34 381 5 261 6 -20 19 -46 28 -57 10 -11 51 -87 91 -170 41 -82 86
-165 102 -182 15 -18 32 -51 38 -72 6 -22 16 -43 22 -47 7 -5 9 -2 4 7 -4 8 4
2 18 -13 35 -39 66 -36 108 10 146 156 438 386 618 487 107 59 267 122 336
132 54 7 62 21 88 145 38 182 30 484 -19 724 -21 102 -22 119 -10 138 8 12 17
55 21 96 7 75 7 75 68 140 119 128 261 305 314 391 l22 36 -63 -32 c-186 -96
-209 -106 -276 -130 -58 -20 -78 -20 -61 0 7 8 8 15 3 15 -6 0 -13 17 -16 38
-3 20 -8 44 -12 53 -5 14 18 30 112 80 302 160 508 304 538 374 34 80 35 80
-67 26 -158 -83 -409 -163 -446 -142 -11 7 -12 11 -4 11 10 0 13 20 11 81 -1
60 2 83 12 91 10 6 7 7 -11 2 l-25 -7 20 23 20 23 -33 -17 c-19 -10 -36 -15
-38 -13 -3 2 28 21 68 40 208 102 504 331 664 513 l55 63 19 118 c27 165 27
167 -18 114 -47 -57 -151 -157 -222 -213 -134 -108 -378 -252 -512 -303 -42
-15 -49 -16 -62 -2 -14 13 -12 17 17 31 18 8 25 16 16 16 -13 0 -17 19 -23
110 -4 71 -3 118 4 130 9 17 8 19 -7 13 -10 -3 -22 -9 -28 -14 -49 -36 -535
-169 -619 -169 -12 0 -71 29 -131 65 -59 36 -125 70 -147 77 -21 6 -38 14 -38
17 0 3 11 33 25 66 40 98 32 285 -17 378 l-14 28 -56 -46z m1029 -661 c-3 -3
-12 -4 -19 -1 -8 3 -5 6 6 6 11 1 17 -2 13 -5z m-1370 -550 c4 -12 -55 -26
-71 -16 -14 8 26 33 48 30 11 -2 21 -8 23 -14z m1406 -31 c-7 -2 -19 -2 -25 0
-7 3 -2 5 12 5 14 0 19 -2 13 -5z m-2056 -518 c59 -42 44 -173 -29 -242 -58
-56 -136 -83 -195 -67 -33 9 -17 24 25 24 113 0 240 127 201 202 -17 33 -50
68 -66 68 -7 0 -13 7 -13 15 0 20 49 20 77 0z m1712 -227 c0 -260 -59 -449
-199 -638 -171 -229 -483 -419 -672 -408 l-53 3 75 23 c304 95 521 268 639
511 17 36 31 68 31 73 0 4 25 59 55 122 64 133 100 250 110 359 4 42 9 77 11
77 2 0 4 -55 3 -122z"/>
<path d="M4308 7403 c6 -2 18 -2 25 0 6 3 1 5 -13 5 -14 0 -19 -2 -12 -5z"/>
<path d="M3614 6392 c-12 -7 53 -112 133 -213 24 -30 63 -80 87 -111 24 -31
46 -54 50 -51 3 4 6 21 6 40 0 18 9 56 20 85 11 29 20 60 20 68 -1 8 -38 37
-83 64 -45 27 -107 66 -137 85 -59 38 -78 44 -96 33z"/>
<path d="M4501 5414 c0 -11 3 -14 6 -6 3 7 2 16 -1 19 -3 4 -6 -2 -5 -13z"/>
<path d="M4510 5370 c0 -5 5 -10 11 -10 5 0 7 5 4 10 -3 6 -8 10 -11 10 -2 0
-4 -4 -4 -10z"/>
<path d="M5124 4066 c1 -23 2 -24 20 -8 10 9 20 16 23 14 3 -2 8 0 11 4 4 4 2
4 -5 0 -6 -3 -14 -2 -18 4 -12 20 -33 10 -31 -14z"/>
<path d="M2355 3467 c-122 -31 -213 -104 -268 -216 -28 -57 -32 -77 -35 -165
-3 -83 0 -112 17 -164 39 -113 122 -219 252 -319 162 -125 188 -142 242 -158
59 -18 175 -18 231 -2 38 12 38 13 42 70 5 65 7 64 -74 41 -100 -30 -231 -7
-305 52 l-37 29 72 7 c40 4 99 16 130 27 l57 20 45 -35 c25 -19 50 -34 57 -34
19 0 79 50 79 66 0 7 -18 32 -40 54 -22 22 -40 42 -40 45 0 2 13 25 29 50 57
91 76 253 42 365 -32 105 -131 210 -235 249 -71 26 -195 35 -261 18z m229
-128 c117 -54 180 -195 156 -346 -11 -69 -37 -133 -54 -133 -6 0 -40 19 -75
41 l-65 41 -28 -34 c-15 -18 -28 -38 -28 -44 0 -6 22 -26 50 -45 27 -19 50
-37 50 -41 0 -14 -67 -28 -134 -28 -117 1 -202 54 -253 158 -23 49 -27 70 -28
147 0 74 4 100 24 143 29 65 106 137 170 157 60 19 155 12 215 -16z"/>
<path d="M2970 3198 l5 -273 31 -65 c43 -90 75 -124 152 -162 65 -32 70 -33
197 -33 122 0 134 2 186 28 78 38 140 107 169 187 21 60 23 84 28 328 l4 262
-66 0 -66 0 0 -238 c0 -259 -6 -300 -55 -374 -37 -55 -109 -88 -196 -88 -90 0
-149 22 -198 75 -64 69 -71 110 -71 387 l0 238 -62 0 -63 0 5 -272z"/>
<path d="M5410 3460 c0 -5 5 -10 10 -10 6 0 10 5 10 10 0 6 -4 10 -10 10 -5 0
-10 -4 -10 -10z"/>
<path d="M5453 3463 c9 -2 23 -2 30 0 6 3 -1 5 -18 5 -16 0 -22 -2 -12 -5z"/>
<path d="M6393 3463 c15 -2 39 -2 55 0 15 2 2 4 -28 4 -30 0 -43 -2 -27 -4z"/>
<path d="M6500 3449 c7 -11 14 -19 16 -16 7 7 -7 37 -17 37 -6 0 -5 -9 1 -21z"/>
<path d="M7336 3455 c-3 -8 -1 -15 4 -15 6 0 10 4 10 9 0 5 12 12 28 14 26 4
26 4 -4 6 -20 0 -34 -5 -38 -14z"/>
<path d="M7866 3455 c-3 -8 -3 -15 0 -15 3 0 12 7 20 15 13 13 13 15 1 15 -8
0 -17 -7 -21 -15z"/>
<path d="M7928 3463 c12 -2 30 -2 40 0 9 3 -1 5 -23 4 -22 0 -30 -2 -17 -4z"/>
<path d="M7446 3441 c-4 -6 -3 -18 2 -27 8 -15 10 -14 16 2 8 20 -8 42 -18 25z"/>
<path d="M7898 3443 c6 -2 18 -2 25 0 6 3 1 5 -13 5 -14 0 -19 -2 -12 -5z"/>
<path d="M7940 3442 c0 -5 7 -9 15 -9 8 0 12 4 9 9 -3 4 -9 8 -15 8 -5 0 -9
-4 -9 -8z"/>
<path d="M6346 3404 c-9 -24 -7 -31 5 -14 9 12 10 11 6 -5 -3 -15 1 -21 14
-21 15 0 16 4 6 21 -6 11 -10 23 -9 28 4 14 -16 7 -22 -9z"/>
<path d="M6505 3400 c4 -14 11 -29 16 -34 4 -5 5 1 2 14 -4 16 -3 21 5 16 7
-4 12 -3 12 3 0 5 -4 13 -10 16 -5 3 -10 0 -10 -7 0 -10 -3 -9 -11 2 -8 11 -9
9 -4 -10z"/>
<path d="M7325 3409 c-4 -6 -5 -12 -2 -15 2 -3 7 2 10 11 7 17 1 20 -8 4z"/>
<path d="M7861 3404 c0 -11 3 -14 6 -6 3 7 2 16 -1 19 -3 4 -6 -2 -5 -13z"/>
<path d="M7901 3374 c0 -11 3 -14 6 -6 3 7 2 16 -1 19 -3 4 -6 -2 -5 -13z"/>
<path d="M7326 3363 c-11 -40 -17 -108 -8 -93 5 8 12 36 14 63 6 48 3 61 -6
30z"/>
<path d="M7478 3374 c-7 -7 18 -64 28 -64 3 0 2 5 -1 11 -4 6 -10 22 -14 35
-3 14 -10 22 -13 18z"/>
<path d="M7375 3349 c-3 -4 2 -6 10 -5 21 3 28 13 10 13 -9 0 -18 -4 -20 -8z"/>
<path d="M7296 3325 c-3 -9 -5 -33 -5 -53 2 -33 2 -32 9 13 8 53 6 66 -4 40z"/>
<path d="M6550 3320 c0 -5 5 -10 11 -10 5 0 7 5 4 10 -3 6 -8 10 -11 10 -2 0
-4 -4 -4 -10z"/>
<path d="M7831 3314 c0 -11 3 -14 6 -6 3 7 2 16 -1 19 -3 4 -6 -2 -5 -13z"/>
<path d="M7466 3305 c-9 -26 -7 -32 5 -12 6 10 9 21 6 23 -2 3 -7 -2 -11 -11z"/>
<path d="M6296 3284 c-8 -22 -4 -25 11 -9 7 8 9 16 4 19 -5 3 -12 -1 -15 -10z"/>
<path d="M7340 3278 c0 -15 -2 -35 -5 -45 -3 -10 2 -3 10 16 12 24 13 37 6 44
-8 8 -11 3 -11 -15z"/>
<path d="M3870 2981 c0 -218 3 -310 11 -313 6 -2 26 -2 45 0 l34 4 0 309 0
309 -45 0 -45 0 0 -309z"/>
<path d="M4070 2974 l0 -315 43 3 42 3 5 235 5 235 40 -51 c22 -28 107 -135
190 -238 139 -173 152 -186 182 -186 l33 0 0 315 0 315 -45 0 -45 0 -2 -222
-3 -222 -74 95 c-41 52 -121 151 -179 222 l-104 127 -44 0 -44 0 0 -316z"/>
<path d="M4908 3266 c-130 -36 -205 -135 -215 -286 -9 -132 52 -241 164 -297
73 -35 175 -38 238 -5 55 28 135 116 135 148 0 17 -73 29 -79 13 -8 -24 -72
-87 -101 -99 -50 -21 -134 -8 -178 26 -40 33 -82 104 -82 141 l0 23 236 0 237
0 -5 63 c-16 190 -182 320 -350 273z m140 -85 c66 -34 102 -88 102 -152 l0
-29 -180 0 -180 0 0 23 c0 12 9 40 19 62 46 99 151 141 239 96z"/>
<path d="M6351 3264 c0 -11 3 -14 6 -6 3 7 2 16 -1 19 -3 4 -6 -2 -5 -13z"/>
<path d="M6515 3251 c-8 -17 -12 -31 -8 -31 9 0 35 52 29 58 -3 2 -12 -10 -21
-27z"/>
<path d="M6370 3257 c0 -8 -7 -23 -16 -31 -11 -12 -13 -20 -5 -33 6 -10 11
-15 12 -10 2 8 2 10 14 50 4 15 5 31 1 34 -3 4 -6 -1 -6 -10z"/>
<path d="M6325 3233 c-7 -26 -8 -26 -15 -8 -6 13 -9 15 -9 5 0 -8 3 -19 7 -25
15 -21 27 -12 29 21 2 41 -2 44 -12 7z"/>
<path d="M7265 3250 c-3 -5 -1 -10 4 -10 6 0 11 5 11 10 0 6 -2 10 -4 10 -3 0
-8 -4 -11 -10z"/>
<path d="M7311 3229 c-1 -15 -8 -32 -16 -39 -8 -7 -15 -18 -15 -24 0 -6 4 -4
10 4 19 30 19 2 0 -51 -11 -29 -20 -58 -20 -63 0 -20 13 6 35 68 17 48 21 74
15 98 -7 30 -8 30 -9 7z"/>
<path d="M6530 3231 c0 -5 5 -13 10 -16 6 -3 10 -2 10 4 0 5 -4 13 -10 16 -5
3 -10 2 -10 -4z"/>
<path d="M6571 3224 c0 -11 3 -14 6 -6 3 7 2 16 -1 19 -3 4 -6 -2 -5 -13z"/>
<path d="M7860 3225 c0 -8 2 -15 4 -15 2 0 6 7 10 15 3 8 1 15 -4 15 -6 0 -10
-7 -10 -15z"/>
<path d="M6270 3215 c0 -8 4 -15 10 -15 5 0 7 7 4 15 -4 8 -8 15 -10 15 -2 0
-4 -7 -4 -15z"/>
<path d="M6595 3209 c-4 -6 -5 -12 -2 -15 2 -3 7 2 10 11 7 17 1 20 -8 4z"/>
<path d="M7257 3189 c3 -15 0 -30 -7 -34 -9 -5 -10 -1 -5 16 4 13 4 21 0 17
-14 -13 -23 -77 -11 -81 8 -3 7 -11 -1 -30 -7 -15 -10 -34 -6 -44 4 -11 3 -14
-5 -9 -7 4 -12 15 -13 24 0 14 -2 13 -9 -3 -11 -26 -12 -35 -2 -34 27 4 42 -3
42 -22 0 -11 5 -17 10 -14 6 4 7 13 1 24 -11 20 -10 141 2 134 4 -2 7 -14 8
-26 0 -21 1 -21 8 -2 5 11 4 23 -1 26 -10 7 0 56 13 65 15 9 10 20 -10 20 -16
0 -19 -5 -14 -27z"/>
<path d="M7886 3203 c-6 -14 -5 -15 5 -6 7 7 10 15 7 18 -3 3 -9 -2 -12 -12z"/>
<path d="M6540 3189 c0 -15 18 -19 23 -6 3 8 -1 14 -9 14 -8 0 -14 -4 -14 -8z"/>
<path d="M7535 3189 c-4 -6 -5 -12 -2 -15 2 -3 7 2 10 11 7 17 1 20 -8 4z"/>
<path d="M6244 3137 c-28 -61 -27 -60 -18 -54 5 3 10 -7 11 -21 1 -24 0 -25
-12 -9 -11 16 -13 16 -19 2 -3 -9 -2 -13 3 -10 5 3 12 1 16 -5 4 -6 10 -8 15
-5 4 2 13 -9 20 -25 7 -16 17 -27 22 -24 6 4 5 10 -3 15 -8 5 -10 9 -5 9 5 0
1 9 -8 19 -18 20 -31 95 -15 85 5 -3 8 -2 7 3 -1 4 2 18 6 31 14 41 0 33 -20
-11z"/>
<path d="M6571 3164 c0 -11 3 -14 6 -6 3 7 2 16 -1 19 -3 4 -6 -2 -5 -13z"/>
<path d="M6890 3171 c0 -6 4 -13 10 -16 6 -3 7 1 4 9 -7 18 -14 21 -14 7z"/>
<path d="M6302 3145 c0 -16 2 -22 5 -12 2 9 2 23 0 30 -3 6 -5 -1 -5 -18z"/>
<path d="M6331 3152 c-17 -31 -13 -40 5 -14 9 13 14 26 11 29 -3 2 -10 -4 -16
-15z"/>
<path d="M6971 3154 c0 -11 3 -14 6 -6 3 7 2 16 -1 19 -3 4 -6 -2 -5 -13z"/>
<path d="M7545 3159 c-4 -6 -5 -12 -2 -15 2 -3 7 2 10 11 7 17 1 20 -8 4z"/>
<path d="M7875 3156 c-3 -9 -7 -23 -10 -31 -2 -8 -1 -15 4 -15 5 0 11 12 14
28 6 30 0 44 -8 18z"/>
<path d="M6595 3137 c8 -19 42 -29 42 -11 0 7 -4 11 -9 8 -5 -3 -16 0 -24 7
-12 10 -13 9 -9 -4z"/>
<path d="M7531 3114 c0 -11 3 -14 6 -6 3 7 2 16 -1 19 -3 4 -6 -2 -5 -13z"/>
<path d="M7802 3090 c0 -19 2 -27 5 -17 2 9 2 25 0 35 -3 9 -5 1 -5 -18z"/>
<path d="M6274 3094 c-4 -10 -9 -22 -11 -26 -2 -5 0 -8 5 -8 10 0 24 41 17 48
-3 3 -8 -4 -11 -14z"/>
<path d="M6306 3093 c-3 -10 -10 -28 -16 -40 -5 -13 -8 -23 -5 -23 5 0 45 65
45 74 0 13 -18 5 -24 -11z"/>
<path d="M6640 3084 c0 -8 5 -12 10 -9 6 4 8 11 5 16 -9 14 -15 11 -15 -7z"/>
<path d="M7211 3084 c0 -11 3 -14 6 -6 3 7 2 16 -1 19 -3 4 -6 -2 -5 -13z"/>
<path d="M6556 3076 c6 -16 34 -30 34 -18 0 10 -22 32 -32 32 -4 0 -5 -6 -2
-14z"/>
<path d="M7011 3074 c0 -11 3 -14 6 -6 3 7 2 16 -1 19 -3 4 -6 -2 -5 -13z"/>
<path d="M6648 3050 c-19 -21 -18 -41 1 -64 21 -25 25 -11 6 18 -16 24 -16 26
-1 26 9 0 16 -7 16 -17 0 -9 3 -14 6 -10 4 3 3 14 -1 24 -5 10 -7 24 -6 31 2
15 0 14 -21 -8z"/>
<path d="M7500 3051 c0 -6 4 -13 10 -16 6 -3 7 1 4 9 -7 18 -14 21 -14 7z"/>
<path d="M7250 3038 c0 -9 5 -20 10 -23 13 -8 13 5 0 25 -8 13 -10 13 -10 -2z"/>
<path d="M5423 3000 c0 -25 2 -35 4 -22 2 12 2 32 0 45 -2 12 -4 2 -4 -23z"/>
<path d="M6195 3019 c-4 -6 -5 -12 -2 -15 2 -3 7 2 10 11 7 17 1 20 -8 4z"/>
<path d="M6212 3000 c-14 -23 -15 -30 -3 -30 8 0 24 41 18 47 -2 1 -8 -7 -15
-17z"/>
<path d="M7751 3004 c0 -11 3 -14 6 -6 3 7 2 16 -1 19 -3 4 -6 -2 -5 -13z"/>
<path d="M7531 3000 c0 -15 38 -91 39 -79 0 4 -9 26 -20 50 -11 24 -19 37 -19
29z"/>
<path d="M7167 2962 c-20 -50 -20 -52 -7 -52 6 0 10 10 10 23 0 12 5 29 10 37
8 12 10 10 11 -10 0 -23 1 -23 9 -5 12 27 12 37 1 31 -5 -4 -11 -1 -13 6 -2 6
-12 -7 -21 -30z"/>
<path d="M6176 2973 c-6 -14 -5 -15 5 -6 7 7 10 15 7 18 -3 3 -9 -2 -12 -12z"/>
<path d="M6690 2981 c0 -6 4 -13 10 -16 6 -3 7 1 4 9 -7 18 -14 21 -14 7z"/>
<path d="M6620 2969 c0 -5 5 -7 10 -4 6 3 10 8 10 11 0 2 -4 4 -10 4 -5 0 -10
-5 -10 -11z"/>
<path d="M7227 2959 c7 -7 15 -10 18 -7 3 3 -2 9 -12 12 -14 6 -15 5 -6 -5z"/>
<path d="M7616 2962 c-3 -5 1 -9 9 -9 8 0 12 4 9 9 -3 4 -7 8 -9 8 -2 0 -6 -4
-9 -8z"/>
<path d="M6690 2943 c0 -5 9 -18 20 -28 11 -10 20 -16 20 -13 0 3 -9 15 -20
28 -11 13 -20 19 -20 13z"/>
<path d="M6170 2930 c-8 -5 -12 -11 -9 -14 3 -3 14 1 25 9 21 16 8 20 -16 5z"/>
<path d="M7210 2918 c0 -19 -2 -20 -10 -8 -5 8 -10 10 -10 4 0 -5 6 -18 13
-27 10 -15 12 -13 14 18 2 19 1 35 -2 35 -3 0 -5 -10 -5 -22z"/>
<path d="M7741 2924 c0 -11 3 -14 6 -6 3 7 2 16 -1 19 -3 4 -6 -2 -5 -13z"/>
<path d="M7811 2924 c0 -11 3 -14 6 -6 3 7 2 16 -1 19 -3 4 -6 -2 -5 -13z"/>
<path d="M6671 2915 c0 -5 6 -21 14 -35 8 -14 14 -20 14 -15 0 6 -6 21 -14 35
-8 14 -14 21 -14 15z"/>
<path d="M6633 2886 c-10 -11 -9 -15 2 -20 10 -4 15 1 15 14 0 23 -1 24 -17 6z"/>
<path d="M6976 2883 c-6 -14 -5 -15 5 -6 7 7 10 15 7 18 -3 3 -9 -2 -12 -12z"/>
<path d="M7173 2877 c1 -15 5 -27 10 -27 10 0 9 22 -2 39 -7 10 -9 7 -8 -12z"/>
<path d="M6166 2883 c5 -5 12 -12 16 -18 4 -6 8 -2 8 8 0 9 -7 17 -17 17 -9 0
-12 -3 -7 -7z"/>
<path d="M6722 2868 c7 -15 15 -23 17 -17 2 6 -4 18 -13 27 -15 15 -15 15 -4
-10z"/>
<path d="M7633 2875 c-3 -9 -3 -19 1 -22 3 -4 6 1 6 10 0 8 6 18 13 20 9 4 9
6 -1 6 -7 1 -15 -6 -19 -14z"/>
<path d="M7712 2865 c0 -16 2 -22 5 -12 2 9 2 23 0 30 -3 6 -5 -1 -5 -18z"/>
<path d="M6210 2871 c0 -6 4 -13 10 -16 6 -3 7 1 4 9 -7 18 -14 21 -14 7z"/>
<path d="M7131 2859 c-7 -12 -10 -23 -8 -26 3 -3 11 5 17 17 15 28 8 35 -9 9z"/>
<path d="M7611 2864 c0 -11 3 -14 6 -6 3 7 2 16 -1 19 -3 4 -6 -2 -5 -13z"/>
<path d="M6141 2854 c0 -11 3 -14 6 -6 3 7 2 16 -1 19 -3 4 -6 -2 -5 -13z"/>
<path d="M7650 2853 c0 -4 5 -15 10 -23 8 -13 10 -13 10 2 0 9 -4 20 -10 23
-5 3 -10 3 -10 -2z"/>
<path d="M6651 2834 c0 -11 3 -14 6 -6 3 7 2 16 -1 19 -3 4 -6 -2 -5 -13z"/>
<path d="M7071 2834 c0 -11 3 -14 6 -6 3 7 2 16 -1 19 -3 4 -6 -2 -5 -13z"/>
<path d="M7195 2839 c-4 -6 -5 -12 -2 -15 2 -3 7 2 10 11 7 17 1 20 -8 4z"/>
<path d="M6200 2830 c0 -5 5 -10 11 -10 5 0 7 5 4 10 -3 6 -8 10 -11 10 -2 0
-4 -4 -4 -10z"/>
<path d="M6746 2823 c-4 -9 -3 -20 1 -24 4 -4 9 3 9 17 2 28 -1 31 -10 7z"/>
<path d="M6689 2793 c-9 -18 -13 -36 -8 -39 5 -2 12 8 15 23 7 25 8 25 15 8 5
-13 8 -14 8 -5 0 8 -3 22 -7 31 -6 13 -11 9 -23 -18z"/>
<path d="M7129 2804 c-11 -30 -4 -64 14 -64 8 0 8 3 -1 12 -17 17 -15 35 8 58
16 16 17 20 5 20 -9 0 -20 -12 -26 -26z"/>
<path d="M7765 2820 c-3 -5 -2 -17 3 -26 8 -15 10 -15 15 0 5 12 3 15 -5 10
-8 -5 -9 -2 -5 9 7 19 2 23 -8 7z"/>
<path d="M7001 2804 c0 -11 3 -14 6 -6 3 7 2 16 -1 19 -3 4 -6 -2 -5 -13z"/>
<path d="M7622 2800 c0 -14 2 -19 5 -12 2 6 2 18 0 25 -3 6 -5 1 -5 -13z"/>
<path d="M6144 2802 c4 -3 14 -7 22 -8 9 -1 13 0 10 4 -4 3 -14 7 -22 8 -9 1
-13 0 -10 -4z"/>
<path d="M6102 2775 c-17 -37 -14 -45 4 -12 9 16 14 31 11 33 -2 2 -9 -7 -15
-21z"/>
<path d="M6726 2765 c-9 -26 -7 -32 5 -12 6 10 9 21 6 23 -2 3 -7 -2 -11 -11z"/>
<path d="M6752 2750 c-13 -16 -18 -30 -13 -30 6 0 17 14 26 30 9 17 14 30 12
30 -2 0 -13 -13 -25 -30z"/>
<path d="M7017 2759 c4 -13 8 -18 11 -10 2 7 -1 18 -6 23 -8 8 -9 4 -5 -13z"/>
<path d="M7640 2745 c0 -14 -4 -25 -10 -25 -16 0 5 -43 23 -46 10 -1 14 3 10
12 -3 8 -9 11 -14 8 -6 -3 -7 11 -3 35 4 23 4 41 0 41 -3 0 -6 -11 -6 -25z"/>
<path d="M5926 2753 c5 -5 12 -12 15 -16 3 -5 9 -2 12 7 5 12 0 16 -15 16 -12
0 -17 -3 -12 -7z"/>
<path d="M6120 2755 c0 -5 5 -17 10 -25 5 -8 10 -10 10 -5 0 6 -5 17 -10 25
-5 8 -10 11 -10 5z"/>
<path d="M6776 2745 c-9 -26 -7 -32 5 -12 6 10 9 21 6 23 -2 3 -7 -2 -11 -11z"/>
<path d="M7662 2730 c0 -14 2 -19 5 -12 2 6 2 18 0 25 -3 6 -5 1 -5 -13z"/>
<path d="M6076 2713 c-6 -14 -5 -15 5 -6 7 7 10 15 7 18 -3 3 -9 -2 -12 -12z"/>
<path d="M6690 2720 c0 -5 5 -10 11 -10 5 0 7 5 4 10 -3 6 -8 10 -11 10 -2 0
-4 -4 -4 -10z"/>
<path d="M7680 2705 c-11 -13 -10 -14 4 -9 9 3 16 10 16 15 0 13 -6 11 -20 -6z"/>
<path d="M5412 2690 c0 -14 2 -19 5 -12 2 6 2 18 0 25 -3 6 -5 1 -5 -13z"/>
<path d="M6709 2699 c-10 -6 -4 -9 19 -9 17 0 32 2 32 4 0 9 -39 13 -51 5z"/>
<path d="M7737 2693 c-4 -3 -7 -11 -7 -17 0 -6 5 -5 12 2 6 6 9 14 7 17 -3 3
-9 2 -12 -2z"/>
<path d="M5928 2673 c7 -3 16 -2 19 1 4 3 -2 6 -13 5 -11 0 -14 -3 -6 -6z"/>
<path d="M6738 2673 c18 -2 45 -2 60 0 15 2 0 4 -33 4 -33 0 -45 -2 -27 -4z"/>
</g>
</svg>
